<?xml version="1.0" encoding="utf-8"?>
<!-- Generator: Adobe Illustrator 21.0.0, SVG Export Plug-In . SVG Version: 6.00 Build 0)  -->
<svg version="1.1" id="图层_1" xmlns="http://www.w3.org/2000/svg" xmlns:xlink="http://www.w3.org/1999/xlink" x="0px" y="0px"
	 viewBox="0 0 247 91.3" style="enable-background:new 0 0 247 91.3;" xml:space="preserve">
<style type="text/css">
	.st0{fill:#FCD245;}
</style>
<title>实槌logo</title>
<rect x="173.5" y="14.8" class="st0" width="12" height="69.7"/>
<polygon class="st0" points="189.8,81.2 189.8,29.3 201.9,29.3 202.3,79.2 "/>
<path class="st0" d="M189.8,84.5c13.9-6.4,29.9-6.4,43.7,0v-11c-14.1-5.2-29.6-5.2-43.7,0V84.5z"/>
<path class="st0" d="M165.6,47.5c0,0,10.1-2.6,19.7-13v14.4c0,0-6.9,5.3-19.8,9.4L165.6,47.5z"/>
<rect x="165.6" y="29.2" class="st0" width="8" height="10.7"/>
<rect x="206.7" y="17.5" class="st0" width="27" height="10.3"/>
<rect x="206.7" y="30.2" class="st0" width="27" height="10.3"/>
<polygon class="st0" points="233.7,65.8 211.7,65.9 206.4,55.4 233.7,55.4 "/>
<rect x="206.4" y="42.8" class="st0" width="27.3" height="10.3"/>
<rect x="223" y="17.5" class="st0" width="10.7" height="22.1"/>
<rect x="223.1" y="42.9" class="st0" width="10.7" height="21.5"/>
<rect x="206.4" y="30.2" class="st0" width="10.7" height="21.7"/>
<path id="_路径_" class="st0" d="M218.6,15.1v8.4h-12v-8.4C210.6,14.4,214.7,14.4,218.6,15.1"/>
<path id="_路径_2" class="st0" d="M201.9,15.2v12.5h-12V15.2C193.9,14.3,198,14.3,201.9,15.2"/>
<rect x="97.2" y="17.4" class="st0" width="62.8" height="10.7"/>
<rect x="125.3" y="31.8" class="st0" width="12.4" height="23.4"/>
<rect x="97.2" y="17.4" class="st0" width="9.6" height="18.1"/>
<rect x="110.2" y="31.8" class="st0" width="11.7" height="8"/>
<rect x="110.2" y="41.4" class="st0" width="11.7" height="8"/>
<path class="st0" d="M97.7,74c10.1-0.5,19.6-5.3,26.1-13l12.4,0.5c0,0-7.5,19.6-38.4,22.8L97.7,74z"/>
<path class="st0" d="M160,73.9c-5.8-0.4-11.4-2.6-16-6.4l-8.2,7.2c0,0,7.7,9.5,20,9.5L160,73.9z"/>
<path class="st0" d="M97.2,48.5c20.2,7.2,42.5,7.2,62.8,0v10.7c0,0-28.5,10.7-62.8,0V48.5z"/>
<path id="_路径_3" class="st0" d="M138.5,15.1v8.4h-12v-8.4C130.3,14.4,134.4,14.4,138.5,15.1"/>
<path class="st0" d="M64.5,38.5L64.5,38.5L64.5,38.5L52.3,50.2c-0.5,0.5-1,1.2-1.3,1.8c-2.5,4.3-1.7,9.8,1.8,13.3
	c4.6,4.8,10.4,2.6,12.5,1.6c0.7-0.4,1.5-1,2.1-1.5l5.4-5.2l0,0c0.9-1,0.8-2.5-0.2-3.4c-0.9-0.8-2.3-0.8-3.2-0.1l0,0L64,61.9l0.1,0.1
	H64l0,0c-2.4,2.2-6.1,2-8.3-0.4c-2-2.2-2-5.6-0.1-7.8L67.9,42l0,0l0,0c1-0.9,1-2.5,0.1-3.5C67,37.6,65.5,37.5,64.5,38.5L64.5,38.5z"
	/>
<path class="st0" d="M66.7,77.8L66.7,77.8L66.7,77.8l12.2-11.7c0.5-0.5,0.9-1.1,1.3-1.8c2.5-4.3,1.7-9.8-1.8-13.3
	c-4.6-4.8-10.4-2.6-12.6-1.6c-0.7,0.4-1.5,1-2.1,1.5l-5.4,5.2l0,0c-0.9,1-0.8,2.5,0.2,3.4c0.9,0.8,2.3,0.8,3.2,0.1l0,0l5.4-5.1
	l0.1-0.1l0.1-0.1l0,0c2.4-2.2,6.1-2,8.3,0.4c2,2.2,2,5.6,0.1,7.8L63.3,74.2l0,0l0,0c-1,0.9-1,2.5-0.1,3.5
	C64.2,78.7,65.7,78.7,66.7,77.8L66.7,77.8z"/>
<path class="st0" d="M67.7,20.4L54.8,7.5c-0.6-0.5-1.4-0.5-2,0L45,15.2c-0.5,0.6-0.5,1.4,0,2l12.8,12.9c0.6,0.5,1.4,0.5,2,0l7.8-7.8
	C68.2,21.8,68.2,20.9,67.7,20.4z M59.9,23.1c-0.6,0.5-1.4,0.5-2,0L52,17.3c-0.5-0.6-0.5-1.4,0-2l0.7-0.7c0.6-0.5,1.4-0.5,2,0
	l5.8,5.8c0.5,0.6,0.5,1.4,0,2L59.9,23.1z"/>
<path class="st0" d="M36.1,51.8L23.2,38.9c-0.6-0.5-1.4-0.5-2,0l-7.8,7.8c-0.5,0.6-0.5,1.4,0,2l12.8,12.9c0.6,0.5,1.4,0.5,2,0
	l7.8-7.8C36.6,53.3,36.6,52.4,36.1,51.8z M28.3,54.6c-0.6,0.5-1.4,0.5-2,0l-5.8-5.8c-0.5-0.6-0.5-1.4,0-2l0.7-0.7
	c0.6-0.5,1.4-0.5,2,0l5.8,5.8c0.5,0.6,0.5,1.4,0,2L28.3,54.6z"/>
<path class="st0" d="M76.9,81.8l10.5-10.4c0.2-0.2,0.5-0.2,0.6,0l2.5,2.5c0.2,0.2,0.2,0.5,0,0.6L80,84.9c-0.2,0.2-0.5,0.2-0.6,0
	l-2.5-2.5C76.7,82.2,76.7,82,76.9,81.8z"/>
<path class="st0" d="M75.2,74.4l7.4,7.4c0.2,0.2,0.2,0.5,0,0.6l-2.5,2.5c-0.2,0.2-0.5,0.2-0.6,0L72,77.5c-0.2-0.2-0.2-0.5,0-0.6
	l2.5-2.5C74.7,74.2,75,74.2,75.2,74.4z"/>
<path class="st0" d="M83.1,66.4l7.4,7.4c0.2,0.2,0.2,0.5,0,0.6L88,76.9c-0.2,0.2-0.5,0.2-0.6,0L80,69.5c-0.2-0.2-0.2-0.5,0-0.6
	l2.5-2.5C82.6,66.2,82.9,66.2,83.1,66.4z"/>
<path class="st0" d="M42.6,41.8l7.4,7.4c0.2,0.2,0.2,0.5,0,0.6l-2.5,2.5c-0.2,0.2-0.5,0.2-0.6,0l-7.4-7.4c-0.2-0.2-0.2-0.5,0-0.6
	l2.5-2.5C42.2,41.6,42.5,41.6,42.6,41.8z"/>
<path class="st0" d="M50.6,33.7l7.4,7.4c0.2,0.2,0.2,0.5,0,0.6l-2.5,2.5c-0.2,0.2-0.5,0.2-0.6,0l-7.4-7.4c-0.2-0.2-0.2-0.5,0-0.6
	l2.5-2.5C50.1,33.6,50.4,33.6,50.6,33.7z"/>
<path class="st0" d="M43.4,19.7L25.7,37.4c-0.5,0.6-0.5,1.4,0,2l10.5,10.5c0.6,0.5,1.4,0.5,2,0l6.3-6.2L41,40.2l-2.8,2.7
	c-0.6,0.5-1.4,0.5-2,0l-3.4-3.4c-0.5-0.6-0.5-1.4,0-2l10.6-10.6c0.6-0.5,1.4-0.5,2,0l3.4,3.4c0.5,0.6,0.5,1.4,0,2l-3,3l3.5,3.5
	l6.6-6.5c0.5-0.6,0.5-1.4,0-2L45.5,19.7C44.9,19.2,44,19.2,43.4,19.7z"/>
<path class="st0" d="M11.1,86.4c-1.3,0-4.1-0.4-4.8-4.2l0,0l-0.1-3.3c0-1.4,0.6-2.7,1.6-3.8c0.8-0.7,1.7-1.2,2.8-1.3
	c0.9-1.6,2.5-2.6,4.2-2.7H15h23.5c1.8,0.1,3.4,1.2,4.2,2.7c1,0.2,2,0.6,2.8,1.3c1,1,1.6,2.3,1.6,3.7L47,82.3c-0.5,2.4-2.7,4.1-5.1,4
	L11.1,86.4L11.1,86.4z M10.4,81.6c0.1,0.4,0.4,0.6,0.8,0.6H42c0.4,0,0.8-0.2,0.9-0.6l0.1-3.2c0-0.2-0.1-0.5-0.3-0.6
	c-0.4-0.2-0.8-0.3-1.3-0.2h-2.3V76c0-0.1-0.2-0.5-1.1-0.6H15.2c-0.9,0.1-1,0.6-1,0.7v1.6h-2.3c-0.4-0.1-0.9,0-1.3,0.3
	c-0.2,0.2-0.2,0.4-0.3,0.6L10.4,81.6z"/>
</svg>
